<?xml version="1.0" encoding="UTF-8"?>
<svg xmlns="http://www.w3.org/2000/svg" xmlns:xlink="http://www.w3.org/1999/xlink" viewBox="0 0 240 240" width="240px" height="240px">
<g id="surface193586772">
<path style=" stroke:none;fill-rule:nonzero;fill:rgb(4.313726%,59.607846%,46.27451%);fill-opacity:1;" d="M 85.4375 33.453125 C 80.550781 33.453125 76.015625 34.546875 72 36.859375 C 59.449219 44.105469 54.671875 61.765625 57.203125 83.75 C 36.902344 92.550781 24 105.507812 24 120 C 24 134.492188 36.902344 147.449219 57.203125 156.25 C 54.671875 178.234375 59.449219 195.894531 72 203.140625 C 76.007812 205.453125 80.542969 206.546875 85.4375 206.546875 C 95.859375 206.546875 107.902344 201.316406 120 192.34375 C 132.097656 201.316406 144.15625 206.546875 154.578125 206.546875 C 159.464844 206.546875 164 205.453125 168.015625 203.140625 C 180.566406 195.894531 185.34375 178.234375 182.8125 156.25 C 203.105469 147.449219 216 134.488281 216 120 C 216 105.507812 203.097656 92.550781 182.796875 83.75 C 185.328125 61.765625 180.550781 44.105469 168 36.859375 C 163.992188 34.539062 159.457031 33.453125 154.5625 33.453125 C 144.140625 33.453125 132.097656 38.683594 120 47.65625 C 107.902344 38.683594 95.855469 33.453125 85.4375 33.453125 Z M 85.4375 47.453125 C 91.691406 47.453125 99.960938 50.777344 108.9375 56.9375 C 103.660156 61.917969 98.488281 67.582031 93.515625 73.890625 C 85.449219 75.046875 77.84375 76.734375 70.796875 78.84375 C 70.757812 78.355469 70.667969 77.84375 70.640625 77.359375 C 69.785156 63.121094 72.910156 52.503906 79 48.984375 C 80.800781 47.945312 82.902344 47.453125 85.4375 47.453125 Z M 154.5625 47.453125 C 157.089844 47.453125 159.199219 47.945312 161 48.984375 C 167.089844 52.496094 170.214844 63.121094 169.359375 77.359375 C 169.332031 77.84375 169.242188 78.355469 169.203125 78.84375 C 162.152344 76.730469 154.542969 75.046875 146.46875 73.890625 C 141.496094 67.585938 136.339844 61.917969 131.0625 56.9375 C 140.039062 50.777344 148.3125 47.453125 154.5625 47.453125 Z M 120 65.828125 C 122.167969 67.800781 124.320312 69.886719 126.5 72.171875 C 124.339844 72.097656 122.195312 72 120 72 C 117.808594 72 115.667969 72.101562 113.515625 72.171875 C 115.691406 69.890625 117.832031 67.800781 120 65.828125 Z M 120 86 C 126.628906 86 132.914062 86.371094 138.875 87.015625 C 142.511719 91.957031 146.09375 97.183594 149.453125 103 C 152.671875 108.578125 155.519531 114.285156 158.03125 120 C 155.519531 125.71875 152.675781 131.4375 149.453125 137.015625 C 146.105469 142.816406 142.53125 148.007812 138.90625 152.9375 C 132.734375 153.613281 126.402344 154 120 154 C 113.371094 154 107.085938 153.628906 101.125 152.984375 C 97.488281 148.042969 93.90625 142.832031 90.546875 137.015625 C 87.324219 131.4375 84.480469 125.71875 81.96875 120 C 84.480469 114.285156 87.328125 108.578125 90.546875 103 C 93.898438 97.199219 97.46875 91.992188 101.09375 87.0625 C 107.265625 86.386719 113.597656 86 120 86 Z M 157.96875 90.328125 C 161.144531 91.09375 164.195312 91.921875 167.0625 92.84375 C 166.414062 95.78125 165.617188 98.773438 164.71875 101.796875 C 163.6875 99.863281 162.691406 97.925781 161.578125 96 C 160.433594 94.015625 159.160156 92.238281 157.96875 90.328125 Z M 82.015625 90.34375 C 80.828125 92.246094 79.5625 94.023438 78.421875 96 C 77.308594 97.925781 76.308594 99.863281 75.28125 101.796875 C 74.378906 98.765625 73.574219 95.769531 72.921875 92.828125 C 75.84375 91.90625 78.886719 91.085938 82.015625 90.34375 Z M 59.75 97.96875 C 61.4375 105.085938 63.773438 112.464844 66.78125 119.984375 C 63.78125 127.488281 61.453125 134.851562 59.765625 141.953125 C 45.832031 135.226562 38 126.851562 38 120 C 38 112.96875 45.613281 104.953125 58.375 98.578125 C 58.8125 98.359375 59.304688 98.179688 59.75 97.96875 Z M 180.234375 98.046875 C 194.167969 104.773438 202 113.148438 202 120 C 202 127.03125 194.386719 135.046875 181.625 141.421875 C 181.1875 141.640625 180.695312 141.816406 180.25 142.03125 C 178.5625 134.910156 176.246094 127.527344 173.234375 120 C 176.230469 112.503906 178.550781 105.140625 180.234375 98.046875 Z M 120 104 C 111.160156 104 104 111.160156 104 120 C 104 128.839844 111.160156 136 120 136 C 128.839844 136 136 128.839844 136 120 C 136 111.160156 128.839844 104 120 104 Z M 75.28125 138.203125 C 76.3125 140.136719 77.324219 142.070312 78.4375 144 C 79.582031 145.980469 80.839844 147.765625 82.03125 149.671875 C 78.855469 148.90625 75.804688 148.078125 72.9375 147.15625 C 73.585938 144.21875 74.382812 141.230469 75.28125 138.203125 Z M 164.71875 138.21875 C 165.617188 141.246094 166.429688 144.230469 167.078125 147.171875 C 164.15625 148.09375 161.113281 148.910156 157.984375 149.65625 C 159.171875 147.753906 160.4375 145.976562 161.578125 144 C 162.6875 142.078125 163.691406 140.148438 164.71875 138.21875 Z M 70.796875 161.15625 C 77.847656 163.269531 85.457031 164.953125 93.53125 166.109375 C 98.507812 172.417969 103.65625 178.09375 108.9375 183.078125 C 99.960938 189.234375 91.691406 192.5625 85.4375 192.5625 C 82.910156 192.5625 80.800781 192.054688 79 191.015625 C 72.910156 187.503906 69.785156 176.894531 70.640625 162.65625 C 70.667969 162.167969 70.757812 161.648438 70.796875 161.15625 Z M 169.203125 161.15625 C 169.242188 161.648438 169.332031 162.167969 169.359375 162.65625 C 170.214844 176.894531 167.089844 187.496094 161 191.015625 C 159.199219 192.054688 157.097656 192.5625 154.5625 192.5625 C 148.308594 192.5625 140.039062 189.238281 131.0625 183.078125 C 136.34375 178.09375 141.507812 172.417969 146.484375 166.109375 C 154.550781 164.953125 162.15625 163.265625 169.203125 161.15625 Z M 113.5 167.828125 C 115.65625 167.902344 117.804688 168 120 168 C 122.195312 168 124.339844 167.902344 126.5 167.828125 C 124.320312 170.113281 122.167969 172.199219 120 174.171875 C 117.832031 172.199219 115.679688 170.113281 113.5 167.828125 Z M 113.5 167.828125 "/>
</g>
</svg>
